<svg id="Layer_1" data-name="Layer 1" xmlns="http://www.w3.org/2000/svg" viewBox="0 0 351.65 331.14"><defs><style>.cls-1{fill:#fff;}</style></defs><g id="Layer_2" data-name="Layer 2"><g id="Layer_1-2" data-name="Layer 1-2"><ellipse class="cls-1" cx="235.61" cy="234.56" rx="97.5" ry="66"/><ellipse class="cls-1" cx="231.61" cy="233.06" rx="101.5" ry="67.5"/><path class="cls-1" d="M198.69,216.68c-1.78-1.57-4.16-2.12-7.16-2.12H172.11v17h19.42a10.63,10.63,0,0,0,7.16-2.49,7.6,7.6,0,0,0,2.66-6.07A8,8,0,0,0,198.69,216.68Z" transform="translate(0 0)"/><path class="cls-1" d="M313.59,78.18C229.24-65.17,111.46,16.53,32.36,101.84-70.83,217.37,95.44,320,213.72,330.5S398,221.54,313.59,78.18ZM201.35,270.56l-11-27H172.11v27h-12v-69h31.21a23.21,23.21,0,0,1,11.77,3c7,4.09,10.54,10.19,10.54,18.17s-3.68,14.32-11,18.34l12.49,29.49Zm69.54,0-11.05-27H242.11v27h-13v-69h31.75a23.21,23.21,0,0,1,11.77,3c7,4.09,10.54,10.19,10.54,18.17s-3.68,14.32-11.05,18.34l12.49,29.49Zm41.22,0h-12v-69h12Z" transform="translate(0 0)"/><path class="cls-1" d="M268.23,216.68c-1.78-1.57-4.17-2.12-7.16-2.12h-19v17h19a10.63,10.63,0,0,0,7.16-2.49,7.6,7.6,0,0,0,2.66-6.07A8,8,0,0,0,268.23,216.68Z" transform="translate(0 0)"/><path d="M198.69,216.68c-1.78-1.57-4.16-2.12-7.16-2.12H172.11v17h19.42a10.63,10.63,0,0,0,7.16-2.49,7.6,7.6,0,0,0,2.66-6.07A8,8,0,0,0,198.69,216.68Z" transform="translate(0 0)"/><path d="M313.59,78.18C229.24-65.17,111.46,16.53,32.36,101.84-70.83,217.37,95.44,320,213.72,330.5S398,221.54,313.59,78.18ZM201.35,270.56l-11-27H172.11v27h-12v-69h31.21a23.21,23.21,0,0,1,11.77,3c7,4.09,10.54,10.19,10.54,18.17s-3.68,14.32-11,18.34l12.49,29.49Zm69.54,0-11.05-27H242.11v27h-13v-69h31.75a23.21,23.21,0,0,1,11.77,3c7,4.09,10.54,10.19,10.54,18.17s-3.68,14.32-11.05,18.34l12.49,29.49Zm41.22,0h-12v-69h12Z" transform="translate(0 0)"/><path d="M268.23,216.68c-1.78-1.57-4.17-2.12-7.16-2.12h-19v17h19a10.63,10.63,0,0,0,7.16-2.49,7.6,7.6,0,0,0,2.66-6.07A8,8,0,0,0,268.23,216.68Z" transform="translate(0 0)"/></g></g></svg>